Coordinates
nRows=6
nColumns=38

# SIMM Motion File Header:
name Coordinates
datacolumns 38
datarows 6
otherdata 1
range 0.92499999999999993000 0.92999999999999994000

Units are S.I. units (second, meters, Newtons, ...)
Angles are in degrees.

endheader
time	pelvis_tx	pelvis_ty	pelvis_tz	pelvis_tilt	pelvis_list	pelvis_rotation	hip_flexion_r	hip_adduction_r	hip_rotation_r	knee_angle_r	ankle_angle_r	subtalar_angle_r	mtp_angle_r	hip_flexion_l	hip_adduction_l	hip_rotation_l	knee_angle_l	ankle_angle_l	subtalar_angle_l	mtp_angle_l	lumbar_extension	lumbar_bending	lumbar_rotation	arm_flex_r	arm_add_r	arm_rot_r	elbow_flex_r	pro_sup_r	wrist_flex_r	wrist_dev_r	arm_flex_l	arm_add_l	arm_rot_l	elbow_flex_l	pro_sup_l	wrist_flex_l	wrist_dev_l
      0.92499999999999993000	      0.82056404656299475000	      0.95174417997871585000	     -0.19796485562914198000	      4.93704558169176890000	      1.57992640969317290000	     -1.09803404174080970000	     32.92875146146441500000	     -2.39544524401758750000	     -0.61188918529549341000	   -100.39123676763315000000	      2.81702732665170790000	     -0.00000000000000003125	     -0.00000000000000044452	      1.97130056465180090000	      7.18370892292593060000	      0.79338257729536854000	    -42.71406621740416700000	     20.29973871059421600000	     -0.00000000000002929738	      0.00000000000002752674	    -13.01199753188745800000	     -2.72497268353094220000	     -2.61614899229133790000	    -17.59289892055071600000	    -27.67334614145416100000	     20.70918037533905600000	     58.45457915627393700000	    106.57537390763240000000	     -0.00000000000001083878	     -0.00000000000000979978	     -5.15498560339054370000	    -29.73441382272027400000	      1.62612337099112110000	     90.23155555348526500000	    112.11768033376947000000	     -0.00000000000000023638	     -0.00000000000000295480
      0.92599999999999993000	      0.82077337212812440000	      0.95234022504621718000	     -0.19801625824152844000	      4.89462962021599420000	      1.52355937984570500000	     -1.08023443489194680000	     33.17950800328458900000	     -2.32004364985311450000	     -0.69911521533269050000	   -100.04845143421937000000	      2.94852840892290710000	     -0.00000000000000003204	     -0.00000000000000041661	      1.52049496344744630000	      7.11179536231243680000	      0.88255144674729968000	    -42.24791832203217700000	     20.07634226649835800000	     -0.00000000000003027586	      0.00000000000002817488	    -12.93448164961720800000	     -2.66177511922336810000	     -2.78911137979053250000	    -17.79253365700366600000	    -27.68080714106489300000	     20.70144391823994200000	     58.44021904149200700000	    106.51009536825377000000	     -0.00000000000001088130	     -0.00000000000000986513	     -5.12318627914872240000	    -29.68699684587570100000	      1.55624150795436520000	     90.40853489796506900000	    112.15334714742750000000	     -0.00000000000000022105	     -0.00000000000000304669
      0.92699999999999994000	      0.82098938836079982000	      0.95294108926268351000	     -0.19806590955585784000	      4.85195786962988420000	      1.46673877895243710000	     -1.06252357975655620000	     33.42485479107177300000	     -2.24427009016522840000	     -0.78783700039845528000	    -99.69659096212078000000	      3.07902917549214020000	     -0.00000000000000003440	     -0.00000000000000038610	      1.06900836019418750000	      7.03857383804388270000	      0.97096639112959549000	    -41.77800982415770600000	     19.84546580323322100000	     -0.00000000000003116580	      0.00000000000002877109	    -12.85611270014768500000	     -2.59826104490999970000	     -2.96142561474075010000	    -17.99429513519860200000	    -27.68866130977402300000	     20.69091884179782800000	     58.42703068338649800000	    106.44571861849515000000	     -0.00000000000001092396	     -0.00000000000000992779	     -5.09261791917272340000	    -29.63968307099607800000	      1.48769421931674330000	     90.58619680164763100000	    112.18937005893414000000	     -0.00000000000000020315	     -0.00000000000000313757
      0.92799999999999994000	      0.82121201330939964000	      0.95354656768653012000	     -0.19811379079137825000	      4.80904806445197770000	      1.40949397507520670000	     -1.04491528702932500000	     33.66472336395401000000	     -2.16814561032585430000	     -0.87799125473809059000	    -99.33565404713081600000	      3.20848026659357590000	     -0.00000000000000003189	     -0.00000000000000035394	      0.61693825373571953000	      6.96408550606210760000	      1.05856117538939950000	    -41.30452793951779700000	     19.60713856560034400000	     -0.00000000000003192798	      0.00000000000002937153	    -12.77691684234922100000	     -2.53446834531976430000	     -3.13306144208532040000	    -18.19815384537756100000	    -27.69688665403783300000	     20.67761362899289400000	     58.41497098780317300000	    106.38223912033280000000	     -0.00000000000001096785	     -0.00000000000000999075	     -5.06324480931759880000	    -29.59247664865870300000	      1.42051827102272490000	     90.76449963402269800000	    112.22572341577740000000	     -0.00000000000000018668	     -0.00000000000000322120
      0.92899999999999994000	      0.82144116137661216000	      0.95415645369483393000	     -0.19815988419899863000	      4.76591810164133100000	      1.35185453116410810000	     -1.02742322734990710000	     33.89904739853656000000	     -2.09169090352387510000	     -0.96951309177856926000	    -98.96564206070463900000	      3.33683231868056570000	     -0.00000000000000002866	     -0.00000000000000032331	      0.16438230096602022000	      6.88837222758237200000	      1.14526975398513290000	    -40.82766122657736200000	     19.36139379345898700000	     -0.00000000000003262073	      0.00000000000002984879	    -12.69692049808960400000	     -2.47043490309751550000	     -3.30398876107815690000	    -18.40407932203891800000	    -27.70546108968851600000	     20.66153779994335000000	     58.40399756198841200000	    106.31965184036477000000	     -0.00000000000001101255	     -0.00000000000001005540	     -5.03503157431223690000	    -29.54538169706447100000	      1.35474956702251800000	     90.94340183831774000000	    112.26238111207644000000	     -0.00000000000000016781	     -0.00000000000000330605
      0.92999999999999994000	      0.82167674332692786000	      0.95477053894677877000	     -0.19820417311006264000	      4.72258602836509310000	      1.29385018439238290000	     -1.01006092124803250000	     34.12776275652782900000	     -2.01492629810703990000	     -1.06233608554670680000	    -98.58655912974425900000	      3.46403600372980370000	     -0.00000000000000002551	     -0.00000000000000029881	     -0.28856172462313062000	      6.81147652130370050000	      1.23102631744726490000	    -40.34759953515942500000	     19.10826873099339500000	     -0.00000000000003336640	      0.00000000000003021969	    -12.61615035989759000000	     -2.40619856449584190000	     -3.47417762164728310000	    -18.61204013133619400000	    -27.71436247523559300000	     20.64270190432884500000	     58.39406874006681400000	    106.25795126333391000000	     -0.00000000000001105818	     -0.00000000000001012039	     -5.00794321592624050000	    -29.49840230569475700000	      1.29042311803398160000	     91.12286195486333900000	    112.29931661965115000000	     -0.00000000000000014780	     -0.00000000000000339152
